# xmcd
#
# Track frame offsets: 
#        150
#        17811
#        34627
#        62090
#        80827
#        93250
#        112340
#        125123
#        137496
#        158285
#
# Disc length: 2437 seconds
#
# Revision: 0
# Processed by: cddbd v1.5.2PL0 Copyright (c) Steve Scherf et al.
# Submitted via: ExactAudioCopy v0.99pb4
#
DISCID=8009830a
DTITLE=The Persuaders - The Persuaders
DYEAR=1973
DGENRE=Soul
TTITLE0=Peace In The Valley Of Love
TTITLE1=Please Stay
TTITLE2=If You Feel Like I Do
TTITLE3=Trying Girls Out
TTITLE4=Is It Too Heavy For You
TTITLE5=Bad Bold And Beautiful Girl
TTITLE6=What Is The Definition Of Love
TTITLE7=Love Goes Good When Things Go Bad
TTITLE8=I Want To Make It With You
TTITLE9=You Still Love Me(After All You've Been Through)
EXTD=
EXTT0=
EXTT1=
EXTT2=
EXTT3=
EXTT4=
EXTT5=
EXTT6=
EXTT7=
EXTT8=
EXTT9=
PLAYORDER=
